HIERARCHY
ROOT Hips
{
	OFFSET 0.000000 89.005402 0.000000
	CHANNELS 6 Xposition Yposition Zposition Xrotation Yrotation Zrotation
	JOINT Spine
	{
		OFFSET 0.116900 10.681000 0.373400
		CHANNELS 3 Xrotation Yrotation Zrotation
		JOINT Spine1
		{
			OFFSET 0.000000 13.840401 0.053500
			CHANNELS 3 Xrotation Yrotation Zrotation
			JOINT Spine2
			{
				OFFSET 0.000000 14.712700 -0.366200
				CHANNELS 3 Xrotation Yrotation Zrotation
				JOINT Neck
				{
					OFFSET 0.000000 35.415497 -3.314200
					CHANNELS 3 Xrotation Yrotation Zrotation
					JOINT Head
					{
						OFFSET 0.000000 16.899200 1.218300
						CHANNELS 3 Xrotation Yrotation Zrotation
						JOINT HeadTop_End
						{
							OFFSET 0.000000 22.206207 2.192500
							CHANNELS 3 Xrotation Yrotation Zrotation
							End Site
							{
								OFFSET 0.000000 22.314178 0.000000
							}
						}
					}
				}
				JOINT LeftShoulder
				{
					OFFSET 12.896400 26.716293 -4.548400
					CHANNELS 3 Xrotation Yrotation Zrotation
					JOINT LeftArm
					{
						OFFSET 19.027000 -4.857010 -1.718400
						CHANNELS 3 Xrotation Yrotation Zrotation
						JOINT LeftForeArm
						{
							OFFSET 24.179897 0.000000 0.000000
							CHANNELS 3 Xrotation Yrotation Zrotation
							JOINT LeftHand
							{
								OFFSET 27.156403 0.000000 0.000000
								CHANNELS 3 Xrotation Yrotation Zrotation
								JOINT LeftHandIndex1
								{
									OFFSET 16.441200 0.000000 0.000000
									CHANNELS 3 Xrotation Yrotation Zrotation
									JOINT LeftHandIndex2
									{
										OFFSET 4.821899 0.000000 0.000000
										CHANNELS 3 Xrotation Yrotation Zrotation
										JOINT LeftHandIndex3
										{
											OFFSET 6.386497 0.000000 0.000000
											CHANNELS 3 Xrotation Yrotation Zrotation
											JOINT LeftHandIndex4
											{
												OFFSET 5.188988 0.000000 0.000000
												CHANNELS 3 Xrotation Yrotation Zrotation
												End Site
												{
													OFFSET -0.178703 5.185913 0.000177
												}
											}
										}
									}
								}
								JOINT LeftHandThumb1
								{
									OFFSET 6.534897 -5.032593 5.900300
									CHANNELS 3 Xrotation Yrotation Zrotation
									JOINT LeftHandThumb2
									{
										OFFSET 3.818176 -2.204422 2.204423
										CHANNELS 3 Xrotation Yrotation Zrotation
										JOINT LeftHandThumb3
										{
											OFFSET 3.252098 -1.877594 1.877601
											CHANNELS 3 Xrotation Yrotation Zrotation
											JOINT LeftHandThumb4
											{
												OFFSET 5.251778 -3.032120 3.032117
												CHANNELS 3 Xrotation Yrotation Zrotation
												End Site
												{
													OFFSET 0.000023 6.780014 0.000000
												}
											}
										}
									}
								}
							}
						}
					}
				}
				JOINT RightShoulder
				{
					OFFSET -12.896300 26.716293 -4.548400
					CHANNELS 3 Xrotation Yrotation Zrotation
					JOINT RightArm
					{
						OFFSET -19.027000 -4.857010 -1.718400
						CHANNELS 3 Xrotation Yrotation Zrotation
						JOINT RightForeArm
						{
							OFFSET -24.179897 0.000000 0.000000
							CHANNELS 3 Xrotation Yrotation Zrotation
							JOINT RightHand
							{
								OFFSET -27.156403 0.000000 0.000000
								CHANNELS 3 Xrotation Yrotation Zrotation
								JOINT RightHandThumb1
								{
									OFFSET -6.591202 -4.852203 5.988100
									CHANNELS 3 Xrotation Yrotation Zrotation
									JOINT RightHandThumb2
									{
										OFFSET -3.818176 -2.204422 2.204423
										CHANNELS 3 Xrotation Yrotation Zrotation
										JOINT RightHandThumb3
										{
											OFFSET -3.252098 -1.877594 1.877601
											CHANNELS 3 Xrotation Yrotation Zrotation
											JOINT RightHandThumb4
											{
												OFFSET -5.251778 -3.032120 3.032117
												CHANNELS 3 Xrotation Yrotation Zrotation
												End Site
												{
													OFFSET -0.000023 6.780014 0.000000
												}
											}
										}
									}
								}
								JOINT RightHandIndex1
								{
									OFFSET -16.029404 0.000000 0.000000
									CHANNELS 3 Xrotation Yrotation Zrotation
									JOINT RightHandIndex2
									{
										OFFSET -5.213303 0.000000 0.000000
										CHANNELS 3 Xrotation Yrotation Zrotation
										JOINT RightHandIndex3
										{
											OFFSET -6.386528 0.000000 0.000000
											CHANNELS 3 Xrotation Yrotation Zrotation
											JOINT RightHandIndex4
											{
												OFFSET -5.189026 0.000000 0.000000
												CHANNELS 3 Xrotation Yrotation Zrotation
												End Site
												{
													OFFSET 0.236702 5.183624 0.001972
												}
											}
										}
									}
								}
							}
						}
					}
				}
			}
		}
	}
	JOINT LeftUpLeg
	{
		OFFSET 14.073000 -7.904099 -1.463000
		CHANNELS 3 Xrotation Yrotation Zrotation
		JOINT LeftLeg
		{
			OFFSET -0.109806 -34.073280 4.093200
			CHANNELS 3 Xrotation Yrotation Zrotation
			JOINT LeftFoot
			{
				OFFSET 0.109806 -29.899420 -6.319000
				CHANNELS 3 Xrotation Yrotation Zrotation
				JOINT LeftToeBase
				{
					OFFSET 1.551100 -14.988700 20.535801
					CHANNELS 3 Xrotation Yrotation Zrotation
					JOINT LeftToe_End
					{
						OFFSET 0.221200 0.570800 13.248301
						CHANNELS 3 Xrotation Yrotation Zrotation
						End Site
						{
							OFFSET 0.000000 13.262435 0.000000
						}
					}
				}
			}
		}
	}
	JOINT RightUpLeg
	{
		OFFSET -13.839300 -7.904099 -1.463000
		CHANNELS 3 Xrotation Yrotation Zrotation
		JOINT RightLeg
		{
			OFFSET 0.109694 -34.073219 4.093300
			CHANNELS 3 Xrotation Yrotation Zrotation
			JOINT RightFoot
			{
				OFFSET -0.109694 -29.899384 -6.319200
				CHANNELS 3 Xrotation Yrotation Zrotation
				JOINT RightToeBase
				{
					OFFSET -1.551100 -14.988700 20.535801
					CHANNELS 3 Xrotation Yrotation Zrotation
					JOINT RightToe_End
					{
						OFFSET -0.221200 0.570900 13.248299
						CHANNELS 3 Xrotation Yrotation Zrotation
						End Site
						{
							OFFSET 0.000000 13.262440 0.000000
						}
					}
				}
			}
		}
	}
}
MOTION
Frames: 4
Frame Time: 0.033333
0.031769 49.464279 10.755573 12.159322 0.039016 0.845482 8.498956 -0.563003 -2.186195 -3.675359 -0.603087 -2.229942 -3.680442 -0.556444 -2.169279 -6.519260 -0.892193 0.632785 -22.811181 -2.662993 -2.611280 0.000001 -0.000000 -0.000000 -70.299039 -40.383681 -1.802669 -20.533970 -0.661953 -43.895157 0.000023 -52.000788 0.000017 -47.174863 -17.049175 16.008589 0.169481 -0.168329 1.536949 0.000001 -0.000004 -0.000004 0.287161 1.813393 -17.995947 0.000000 -0.000002 -0.000000 -19.658229 -16.068741 16.254366 3.914210 18.269298 -13.672369 -10.895933 15.013972 3.060855 0.000002 0.000001 0.000000 -41.927376 19.797182 -21.840421 -52.121546 5.096962 48.924037 0.000039 51.269299 -0.000049 -37.315304 9.561847 -17.675064 -12.369254 11.176204 -22.882554 6.876669 -7.667049 24.880214 -12.244867 -13.897674 -12.460128 -0.000001 -0.000002 -0.000001 2.664394 2.048923 0.640745 0.007978 -0.272865 3.351538 0.183319 -1.295119 16.112573 -0.000001 -0.000002 0.000001 -101.091103 -10.552688 13.423091 83.327236 4.283802 -0.592863 7.863776 -6.892311 -10.023948 -0.103113 0.000000 0.000006 -0.000000 0.000000 -0.000000 -102.493354 11.952429 -9.041967 83.785172 -4.034589 -1.002292 9.102457 -0.029764 11.130179 -0.191616 0.000001 0.000002 -0.000000 -0.000000 0.000000 
0.067740 49.449440 10.773714 12.448082 0.105261 0.849104 8.433077 -0.544276 -2.234084 -3.763835 -0.552830 -2.318717 -3.769123 -0.506664 -2.257353 -4.734788 -1.020206 1.383779 -22.399848 -2.407954 -3.121971 -0.000001 0.000000 -0.000000 -71.736377 -43.938955 -4.565876 -31.920746 17.304651 -49.176915 0.000006 -51.276610 0.000015 -51.966767 -11.558645 18.779412 0.470902 -0.704475 8.748749 -0.000001 -0.000003 -0.000003 0.288192 1.816542 -18.028214 0.000002 -0.000004 -0.000000 -19.703499 -13.149294 17.314499 3.191924 18.783227 -9.769829 -12.552388 10.551373 2.222604 -0.000000 -0.000001 0.000001 -46.429454 23.749278 -19.439256 -54.609340 -6.853726 52.561256 -0.000001 48.983518 -0.000022 -33.602348 11.394003 -31.932367 -13.817649 11.327516 -27.861530 6.918327 -7.542904 22.059353 -12.719100 -11.795908 -13.483472 0.000002 0.000000 0.000000 2.601597 2.230106 -2.212677 0.000001 -0.000001 0.000005 0.110098 -1.007714 12.469727 0.000000 -0.000002 0.000000 -101.412388 -10.483536 13.332686 83.285483 4.310539 -0.591354 7.915278 -6.893896 -9.960836 -0.103113 0.000001 0.000006 0.000000 -0.000000 0.000000 -102.742540 12.113690 -9.059196 83.761950 -4.087805 -0.997758 9.131539 -0.019560 11.264821 -0.191616 0.000000 0.000002 0.000000 0.000000 0.000000 
0.077726 49.404404 10.825016 12.634890 0.132255 0.855529 8.445239 -0.534542 -2.258446 -3.746720 -0.543124 -2.392056 -3.752581 -0.497159 -2.329915 -4.653783 -1.118357 1.692935 -19.110405 -2.458447 -3.651465 0.000000 0.000000 -0.000000 -72.092148 -46.773361 -6.701039 -37.064923 18.854495 -47.179924 0.000014 -54.840016 0.000013 -54.779896 -4.971240 30.383646 0.534085 -0.617739 9.124560 -0.000004 0.000007 -0.000068 0.284639 1.805594 -17.915876 0.000004 0.000001 0.000000 -20.093015 -12.581263 17.613806 2.671585 18.805399 -6.558097 -12.453758 10.790478 2.293298 -0.000000 0.000001 -0.000002 -50.291438 27.183957 -16.911963 -53.803067 -8.024764 53.304029 0.000027 51.729165 -0.000022 -26.794678 11.444225 -43.408963 -15.117799 11.249865 -28.143190 6.674389 -7.703694 19.434675 -13.111964 -9.979888 -14.463458 -0.000000 -0.000001 -0.000001 2.595350 2.341150 -3.091988 -0.000003 -0.000002 -0.000003 0.086307 -0.893355 11.035476 -0.000000 -0.000000 -0.000001 -101.654115 -10.493380 13.294578 83.372957 4.310831 -0.593472 7.880081 -6.890463 -9.970876 -0.103113 0.000001 0.000006 -0.000000 -0.000000 0.000000 -102.966966 12.213494 -9.056882 83.864512 -4.101850 -0.993414 9.089426 -0.019301 11.340754 -0.191616 0.000001 0.000002 -0.000000 0.000000 -0.000000 
0.078589 49.323074 10.943584 12.846330 0.119197 0.783009 8.551091 -0.519328 -2.306658 -3.642244 -0.497151 -2.474707 -3.647254 -0.448499 -2.414309 -5.904233 -1.234237 1.806109 -13.320870 -2.766130 -4.385681 0.000000 -0.000000 0.000000 -71.308657 -49.429481 -8.290368 -37.004493 3.420331 -40.205287 0.000023 -62.768421 0.000036 -59.703476 2.910774 51.495726 0.536907 -0.156750 5.680805 0.000006 -0.000015 -0.000048 0.240507 1.662986 -16.457856 -0.000001 -0.000005 0.000000 -20.804263 -10.800876 19.118540 1.489446 17.364984 -1.020505 -11.235884 14.127877 2.836279 -0.000000 0.000000 -0.000000 -54.040242 30.640488 -13.976911 -50.132181 1.442227 51.876267 0.000059 59.996580 -0.000052 -16.090012 7.654922 -54.169165 -18.384996 10.797460 -25.874288 6.095505 -7.144776 15.154323 -14.410502 -5.400013 -15.547531 -0.000001 0.000001 -0.000003 2.676818 2.635896 -5.205011 0.000001 0.000002 0.000002 0.067349 -0.790053 9.745953 -0.000000 0.000000 0.000001 -101.981220 -10.645223 13.312933 83.643412 4.257930 -0.598831 7.735462 -6.879940 -10.030961 -0.103113 -0.000001 0.000006 -0.000000 -0.000001 0.000000 -103.240789 12.231814 -9.012278 84.098685 -4.121585 -0.986105 8.936617 -0.029363 11.425980 -0.191616 0.000001 0.000002 -0.000000 -0.000000 0.000000 
